#!OML:ASF F:\VICON\USERDATA\INSTALL\rory3\rory3.ASF
:FULLY-SPECIFIED
:DEGREES
255
root 0.405494 18.1078 1.60355 -3.8727 -45.4925 2.18785
lowerback 11.7159 -0.306627 -0.996456
upperback 1.31307 -0.476104 1.56379
thorax -5.17383 -0.211083 2.27785
lowerneck -21.9979 -4.23393 -8.94041
upperneck 23.3923 -4.2654 4.82572
head 11.5953 -2.13666 2.57128
rclavicle 5.95857e-014 8.74653e-015
rhumerus -37.7999 -15.664 -76.585
rradius 28.6441
rwrist 8.1211
rhand -14.3324 9.96896
rfingers 7.12502
rthumb 11.8086 -19.6781
lclavicle 5.95857e-014 8.74653e-015
lhumerus -32.8288 -2.22669 86.9033
lradius 35.1614
lwrist -8.97687
lhand -14.5895 24.9003
lfingers 7.12502
lthumb 11.5606 54.5615
rfemur -17.9304 2.349 21.6069
rtibia 29.665
rfoot -6.5781 -4.20037
rtoes 9.71531
lfemur 5.83969 -4.38441 -22.7133
ltibia 45.5323
lfoot 20.1187 -10.2628
ltoes 16.8574
256
root 0.273771 18.1216 1.70123 -3.57023 -45.3617 1.43117
lowerback 11.9767 -0.360969 -0.429335
upperback 1.33738 -0.469452 1.69064
thorax -5.29714 -0.218353 2.09274
lowerneck -21.8123 -4.27961 -9.09375
upperneck 23.28 -4.34768 5.02563
head 11.5324 -2.16302 2.65796
rclavicle -5.84427e-014 -5.56597e-015
rhumerus -37.9476 -15.4651 -76.6176
rradius 28.6439
rwrist 8.21725
rhand -14.5132 9.69346
rfingers 7.12502
rthumb 11.6342 -19.9636
lclavicle -5.84427e-014 -5.56597e-015
lhumerus -33.0611 -2.85038 87.1479
lradius 34.9339
lwrist -9.43146
lhand -14.8972 23.9914
lfingers 7.12502
lthumb 11.2639 53.6689
rfemur -16.8108 2.06223 22.333
rtibia 29.2124
rfoot -6.93226 -4.22926
rtoes 9.53383
lfemur 4.43141 -4.12164 -21.9716
ltibia 48.2513
lfoot 17.938 -9.69914
ltoes 16.2864
257
root 0.14545 18.1322 1.79602 -3.43558 -45.1625 0.907185
lowerback 12.2265 -0.43378 -0.0137651
upperback 1.39648 -0.509239 1.73797
thorax -5.37539 -0.246908 1.91704
lowerneck -21.6196 -4.30264 -9.1666
upperneck 23.0512 -4.41954 5.22078
head 11.4212 -2.1765 2.72977
rclavicle 2.17172e-014 -9.54166e-015
rhumerus -37.9475 -15.2604 -76.7612
rradius 28.5974
rwrist 8.13476
rhand -14.6634 9.40997
rfingers 7.12502
rthumb 11.4894 -20.2552
lclavicle 2.17172e-014 -9.54166e-015
lhumerus -33.2052 -3.09729 87.2173
lradius 34.7775
lwrist -10.1196
lhand -15.0306 23.3974
lfingers 7.12502
lthumb 11.1353 53.0819
rfemur -15.7786 1.69681 22.8765
rtibia 28.8597
rfoot -7.27483 -4.2146
rtoes 8.51275
lfemur 3.09602 -3.83409 -21.4302
ltibia 50.7265
lfoot 15.5433 -9.03674
ltoes 7.70069
258
root 0.015571 18.1388 1.89016 -3.23928 -45.1178 0.455136
lowerback 12.3087 -0.407415 0.30732
upperback 1.46675 -0.431126 1.77008
thorax -5.35177 -0.216066 1.75665
lowerneck -21.5678 -4.3656 -9.21687
upperneck 22.9574 -4.54503 5.41034
head 11.3924 -2.21275 2.78728
rclavicle 2.44505e-014 9.54166e-015
rhumerus -37.8971 -15.3144 -76.835
rradius 28.505
rwrist 8.30136
rhand -14.6149 9.60006
rfingers 7.12502
rthumb 11.5361 -20.0625
lclavicle 2.44505e-014 9.54166e-015
lhumerus -33.313 -3.27385 87.2471
lradius 34.7973
lwrist -10.9295
lhand -14.5328 23.2701
lfingers 7.12502
lthumb 11.6154 52.9282
rfemur -14.9394 1.58944 23.3742
rtibia 28.6013
rfoot -7.63055 -4.31854
rtoes 7.89971
lfemur 1.69103 -3.41036 -20.9154
ltibia 52.9425
lfoot 13.6826 -8.06561
ltoes 5.47341
259
root -0.113629 18.1451 1.98618 -3.16544 -45.0959 0.211616
lowerback 12.3279 -0.326457 0.519597
upperback 1.51444 -0.297522 1.75254
thorax -5.31705 -0.155518 1.59569
lowerneck -21.4479 -4.44404 -9.25488
upperneck 22.8918 -4.69515 5.56308
head 11.3625 -2.26555 2.82577
rclavicle 2.66371e-014 3.97569e-015
rhumerus -37.9534 -15.1931 -76.9539
rradius 28.5596
rwrist 8.33278
rhand -14.4653 9.54867
rfingers 7.12502
rthumb 11.6804 -20.1057
lclavicle 2.66371e-014 3.97569e-015
lhumerus -33.4727 -3.56675 87.3257
lradius 34.8434
lwrist -11.5231
lhand -13.8188 23.0715
lfingers 7.12502
lthumb 12.3039 52.6896
rfemur -14.1492 1.43083 23.697
rtibia 28.392
rfoot -7.99546 -4.38175
rtoes 6.80435
lfemur 0.308173 -2.95393 -20.5757
ltibia 54.8754
lfoot 12.1787 -7.27664
ltoes 4.69922
260
root -0.24174 18.1518 2.08308 -3.1515 -45.1049 0.0298301
lowerback 12.3481 -0.234594 0.723939
upperback 1.55533 -0.15112 1.71959
thorax -5.28925 -0.0883929 1.42102
lowerneck -21.328 -4.53313 -9.31256
upperneck 22.8239 -4.83857 5.66331
head 11.3309 -2.32384 2.84897
rclavicle -1.46604e-014 -1.19271e-014
rhumerus -38.0567 -15.0434 -77.0565
rradius 28.6159
rwrist 8.43077
rhand -14.3715 9.6437
rfingers 7.12502
rthumb 11.7709 -20.0055
lclavicle -1.46604e-014 -1.19271e-014
lhumerus -33.6214 -3.95454 87.4416
lradius 34.8497
lwrist -11.6643
lhand -13.5017 23.2946
lfingers 7.12502
lthumb 12.6096 52.894
rfemur -13.3278 1.33297 23.9529
rtibia 28.2031
rfoot -8.40335 -4.46262
rtoes 5.9024
lfemur -0.993281 -2.50212 -20.3385
ltibia 56.5599
lfoot 10.7335 -6.64099
ltoes 3.37202
261
root -0.369964 18.1611 2.17833 -3.09601 -45.2115 -0.234073
lowerback 12.3824 -0.127558 0.916724
upperback 1.64019 0.0139091 1.71498
thorax -5.22198 -0.0119211 1.2794
lowerneck -21.4272 -4.51436 -9.18241
upperneck 22.9609 -4.86834 5.71651
head 11.4014 -2.31894 2.84339
rclavicle -5.10877e-014 9.54166e-015
rhumerus -37.971 -14.9889 -77.1643
rradius 28.5466
rwrist 8.70769
rhand -14.3225 9.69982
rfingers 7.12502
rthumb 11.8181 -19.9467
lclavicle -5.10877e-014 9.54166e-015
lhumerus -33.6465 -4.16918 87.4966
lradius 34.7674
lwrist -11.736
lhand -13.5334 23.4886
lfingers 7.12502
lthumb 12.579 53.0899
rfemur -12.4882 1.36717 24.2743
rtibia 28.0354
rfoot -8.89596 -4.54779
rtoes 6.10891
lfemur -2.23866 -2.00974 -20.0196
ltibia 58.0105
lfoot 9.61549 -5.93837
ltoes 3.04446
262
root -0.498072 18.1708 2.26991 -3.02205 -45.4198 -0.444451
lowerback 12.3635 0.0164417 0.999325
upperback 1.7179 0.212793 1.71796
thorax -5.13252 0.0838025 1.20228
lowerneck -21.768 -4.3382 -8.96809
upperneck 23.4726 -4.76955 6.00738
head 11.6534 -2.21841 2.9388
rclavicle 6.93262e-014 -1.82882e-014
rhumerus -37.8271 -14.6928 -77.4313
rradius 28.5967
rwrist 8.67024
rhand -14.4126 9.40911
rfingers 7.12502
rthumb 11.7313 -20.2424
lclavicle 6.93262e-014 -1.82882e-014
lhumerus -33.7209 -4.10323 87.4782
lradius 34.7534
lwrist -11.847
lhand -13.6228 23.7582
lfingers 7.12502
lthumb 12.4928 53.3648
rfemur -11.7348 1.41644 24.5659
rtibia 27.8663
rfoot -9.33364 -4.52227
rtoes 6.50608
lfemur -3.52377 -1.39923 -19.7127
ltibia 59.2578
lfoot 8.69827 -5.32137
ltoes 3.35843
263
root -0.622077 18.1754 2.36353 -2.92889 -45.7248 -0.552239
lowerback 12.2622 0.196006 1.04021
upperback 1.74934 0.452433 1.70345
thorax -5.04613 0.200886 1.12415
lowerneck -21.2859 -4.5652 -9.16793
upperneck 22.9563 -5.01113 5.89876
head 11.3896 -2.36156 2.88651
rclavicle 5.27276e-014 1.59028e-015
rhumerus -37.7757 -14.2752 -77.6974
rradius 28.6851
rwrist 8.56494
rhand -14.604 9.28642
rfingers 7.12502
rthumb 11.5467 -20.3755
lclavicle 5.27276e-014 1.59028e-015
lhumerus -33.8567 -3.85593 87.4341
lradius 34.7519
lwrist -11.8401
lhand -14.0242 23.5774
lfingers 7.12502
lthumb 12.1057 53.2072
rfemur -11.1106 1.43944 24.7688
rtibia 27.6999
rfoot -9.71089 -4.41258
rtoes 6.74901
lfemur -4.84632 -0.640372 -19.4968
ltibia 60.3009
lfoot 7.74366 -4.97853
ltoes 1.77646
264
root -0.742301 18.1749 2.45778 -2.82321 -45.9798 -0.765975
lowerback 12.2342 0.356352 1.24243
upperback 1.78387 0.688563 1.68385
thorax -4.99456 0.313159 0.950849
lowerneck -21.3113 -4.53183 -9.07872
upperneck 23.0925 -4.99727 5.89083
head 11.4417 -2.3495 2.87278
rclavicle 6.16729e-014 -1.86858e-014
rhumerus -37.7109 -14.0909 -77.8248
rradius 28.653
rwrist 8.62976
rhand -14.5473 9.70038
rfingers 7.12502
rthumb 11.6014 -19.9585
lclavicle 6.16729e-014 -1.86858e-014
lhumerus -33.9746 -3.63118 87.4091
lradius 34.6916
lwrist -11.6731
lhand -14.4973 23.7763
lfingers 7.12502
lthumb 11.6495 53.4325
rfemur -10.4161 1.47554 25.0416
rtibia 27.5588
rfoot -10.2169 -4.32297
rtoes 6.95765
lfemur -6.06773 0.00439237 -19.2125
ltibia 61.1476
lfoot 6.83131 -4.70388
ltoes -0.84063
